<svg width="136" height="45" viewBox="0 0 136 45" fill="none" xmlns="http://www.w3.org/2000/svg">
<g id="Group">
<g id="Group_2">
<g id="Group_3">
<path id="Vector" d="M124.359 2.41797e-05H11.1835C10.771 2.41797e-05 10.3634 2.41797e-05 9.95197 0.00227418C9.60756 0.00452418 9.26588 0.0110604 8.91816 0.0165617C8.16273 0.0254512 7.40909 0.09191 6.66377 0.21536C5.9195 0.341498 5.19854 0.579304 4.52528 0.920735C3.85284 1.26505 3.23842 1.71246 2.7043 2.24673C2.16737 2.77949 1.7198 3.39529 1.3788 4.07045C1.03686 4.74427 0.799752 5.46633 0.675675 6.21169C0.550419 6.95611 0.483017 7.70911 0.474075 8.46394C0.463635 8.80886 0.462532 9.15493 0.457031 9.4999V35.5034C0.462532 35.8528 0.463635 36.1912 0.474075 36.5406C0.48302 37.2954 0.550421 38.0483 0.675675 38.7927C0.799409 39.5385 1.03653 40.261 1.3788 40.9351C1.71965 41.608 2.16728 42.2213 2.7043 42.7511C3.23639 43.2878 3.85122 43.7355 4.52528 44.0772C5.19853 44.4195 5.91941 44.6587 6.66377 44.7868C7.40921 44.9093 8.16278 44.9758 8.91816 44.9857C9.26588 44.9934 9.60756 44.9978 9.95197 44.9978C10.3634 45 10.771 45 11.1835 45H124.359C124.763 45 125.174 45 125.578 44.9978C125.921 44.9978 126.272 44.9934 126.615 44.9857C127.369 44.9763 128.121 44.9098 128.865 44.7868C129.612 44.6578 130.335 44.4187 131.012 44.0772C131.685 43.7353 132.3 43.2876 132.831 42.7511C133.367 42.2193 133.816 41.6064 134.161 40.9351C134.5 40.2605 134.735 39.5381 134.857 38.7927C134.983 38.0482 135.052 37.2954 135.066 36.5406C135.07 36.1912 135.07 35.8528 135.07 35.5034C135.079 35.0947 135.079 34.6883 135.079 34.2729V10.7282C135.079 10.3162 135.079 9.90749 135.07 9.4999C135.07 9.15493 135.07 8.80886 135.066 8.46389C135.052 7.709 134.983 6.95616 134.857 6.21164C134.735 5.46672 134.5 4.74471 134.161 4.07041C133.466 2.71712 132.365 1.61555 131.012 0.920634C130.335 0.580037 129.612 0.342295 128.865 0.215259C128.122 0.0912648 127.369 0.0247829 126.615 0.0164042C126.272 0.0109142 125.921 0.00432168 125.578 0.00212793C125.174 -0.00012207 124.763 -0.00012207 124.359 -0.00012207V2.41797e-05Z" fill="white"/>
</g>
<g id="&#60;Group&#62;">
<g id="&#60;Group&#62;_2">
<g id="&#60;Group&#62;_3">
<path id="&#60;Path&#62;" d="M28.5767 22.3753C28.5893 21.3988 28.8487 20.4414 29.3307 19.5921C29.8127 18.7429 30.5017 18.0293 31.3336 17.5179C30.8052 16.7631 30.108 16.142 29.2974 15.7038C28.4869 15.2656 27.5854 15.0225 26.6645 14.9936C24.6999 14.7874 22.7954 16.1692 21.7943 16.1692C20.7739 16.1692 19.2326 15.0141 17.5728 15.0483C16.4992 15.0829 15.4529 15.3951 14.5359 15.9544C13.6189 16.5137 12.8623 17.301 12.34 18.2395C10.0775 22.1568 11.7651 27.9139 13.9325 31.0803C15.0168 32.6308 16.2841 34.3628 17.9424 34.3013C19.5651 34.234 20.1711 33.2666 22.1299 33.2666C24.0704 33.2666 24.639 34.3013 26.3309 34.2623C28.0722 34.234 29.1692 32.7049 30.2155 31.1397C30.9947 30.0349 31.5942 28.8139 31.9919 27.5218C30.9803 27.094 30.117 26.3778 29.5097 25.4626C28.9024 24.5474 28.5779 23.4737 28.5767 22.3753Z" fill="#282739"/>
<path id="&#60;Path&#62;_2" d="M25.3801 12.9115C26.3295 11.7718 26.7972 10.3069 26.684 8.82788C25.2335 8.98022 23.8937 9.67345 22.9315 10.7694C22.461 11.3048 22.1007 11.9277 21.8711 12.6025C21.6415 13.2772 21.5472 13.9906 21.5935 14.7019C22.319 14.7093 23.0367 14.5521 23.6926 14.242C24.3485 13.9318 24.9255 13.4769 25.3801 12.9115Z" fill="#282739"/>
</g>
</g>
<g id="Group_4">
<path id="Vector_2" d="M48.0469 30.5325H42.7218L41.443 34.3085H39.1875L44.2313 20.3383H46.5747L51.6185 34.3085H49.3246L48.0469 30.5325ZM43.2733 28.7901H47.4943L45.4135 22.6619H45.3552L43.2733 28.7901Z" fill="#282739"/>
<path id="Vector_3" d="M62.5124 29.2164C62.5124 32.3815 60.8183 34.4151 58.2617 34.4151C57.6141 34.449 56.9701 34.2998 56.4033 33.9846C55.8365 33.6695 55.37 33.2011 55.057 32.6331H55.0087V37.678H52.918V24.1231H54.9417V25.8172H54.9801C55.3074 25.2519 55.7819 24.786 56.353 24.4689C56.924 24.1518 57.5704 23.9955 58.2233 24.0165C60.8084 24.0165 62.5124 26.06 62.5124 29.2164ZM60.3634 29.2164C60.3634 27.1542 59.2978 25.7985 57.6718 25.7985C56.0744 25.7985 54.9999 27.1828 54.9999 29.2164C54.9999 31.2686 56.0744 32.643 57.6718 32.643C59.2978 32.643 60.3634 31.2972 60.3634 29.2164H60.3634Z" fill="#282739"/>
<path id="Vector_4" d="M73.7238 29.2164C73.7238 32.3815 72.0292 34.4151 69.4727 34.4151C68.8251 34.449 68.181 34.2998 67.6142 33.9846C67.0475 33.6695 66.5809 33.2011 66.268 32.6331H66.2196V37.678H64.1289V24.1231H66.1526V25.8172H66.191C66.5184 25.2519 66.9928 24.786 67.5639 24.4689C68.135 24.1518 68.7813 23.9955 69.4342 24.0165C72.0193 24.0165 73.7238 26.06 73.7238 29.2164ZM71.5744 29.2164C71.5744 27.1542 70.5087 25.7985 68.8827 25.7985C67.2853 25.7985 66.2108 27.1828 66.2108 29.2164C66.2108 31.2686 67.2853 32.643 68.8827 32.643C70.5087 32.643 71.5744 31.2972 71.5744 29.2164Z" fill="#282739"/>
<path id="Vector_5" d="M81.1324 30.4162C81.2873 31.8016 82.6331 32.7112 84.4722 32.7112C86.2344 32.7112 87.5022 31.8015 87.5022 30.5524C87.5022 29.468 86.7376 28.8188 84.9271 28.3738L83.1165 27.9376C80.5512 27.318 79.3603 26.1183 79.3603 24.1715C79.3603 21.7611 81.4609 20.1055 84.4426 20.1055C87.3957 20.1055 89.4194 21.7611 89.4875 24.1715H87.377C87.2507 22.7773 86.0982 21.9358 84.414 21.9358C82.7298 21.9358 81.5773 22.7872 81.5773 24.0265C81.5773 25.0142 82.3134 25.5953 84.1141 26.0402L85.6532 26.4182C88.5196 27.096 89.7094 28.2474 89.7094 30.2909C89.7094 32.9045 87.6286 34.5415 84.3173 34.5415C81.2191 34.5415 79.1273 32.943 78.9922 30.4161L81.1324 30.4162Z" fill="#282739"/>
<path id="Vector_6" d="M94.2222 21.7129V24.1233H96.1591V25.7789H94.2222V31.394C94.2222 32.2664 94.61 32.6729 95.4614 32.6729C95.6914 32.6688 95.9209 32.6527 96.1492 32.6245V34.2702C95.7664 34.3418 95.3773 34.3742 94.9879 34.3669C92.9258 34.3669 92.1216 33.5924 92.1216 31.617V25.7789H90.6406V24.1233H92.1216V21.7129H94.2222Z" fill="#282739"/>
<path id="Vector_7" d="M97.2812 29.2163C97.2812 26.0116 99.1687 23.9978 102.112 23.9978C105.065 23.9978 106.944 26.0116 106.944 29.2163C106.944 32.4298 105.075 34.4348 102.112 34.4348C99.15 34.4348 97.2812 32.4298 97.2812 29.2163ZM104.813 29.2163C104.813 27.0179 103.806 25.7205 102.112 25.7205C100.418 25.7205 99.4104 27.0278 99.4104 29.2163C99.4104 31.4235 100.418 32.7111 102.112 32.7111C103.806 32.7111 104.813 31.4235 104.813 29.2163H104.813Z" fill="#282739"/>
<path id="Vector_8" d="M108.664 24.123H110.658V25.8566H110.706C110.841 25.3152 111.159 24.8367 111.605 24.5016C112.051 24.1664 112.599 23.9951 113.156 24.0164C113.397 24.0156 113.638 24.0417 113.873 24.0944V26.05C113.569 25.957 113.251 25.9144 112.933 25.9237C112.63 25.9113 112.327 25.9649 112.046 26.0806C111.765 26.1964 111.512 26.3716 111.305 26.5942C111.098 26.8168 110.942 27.0816 110.847 27.3704C110.752 27.6591 110.72 27.965 110.755 28.267V34.3084H108.664L108.664 24.123Z" fill="#282739"/>
<path id="Vector_9" d="M123.512 31.3169C123.231 33.1659 121.43 34.4348 119.126 34.4348C116.163 34.4348 114.324 32.4496 114.324 29.2646C114.324 26.0698 116.173 23.9978 119.038 23.9978C121.856 23.9978 123.629 25.9336 123.629 29.0219V29.7382H116.435V29.8645C116.401 30.2394 116.448 30.617 116.572 30.9723C116.696 31.3276 116.894 31.6525 117.154 31.9254C117.413 32.1982 117.727 32.4128 118.075 32.5549C118.424 32.697 118.799 32.7633 119.175 32.7495C119.669 32.7958 120.165 32.6814 120.588 32.4233C121.012 32.1651 121.341 31.7771 121.527 31.3169L123.512 31.3169ZM116.445 28.277H121.537C121.555 27.9399 121.504 27.6026 121.387 27.2863C121.269 26.9699 121.087 26.6813 120.852 26.4386C120.618 26.1958 120.336 26.0042 120.023 25.8757C119.711 25.7472 119.376 25.6846 119.038 25.6919C118.698 25.6899 118.36 25.7553 118.045 25.8844C117.73 26.0134 117.444 26.2036 117.203 26.444C116.962 26.6843 116.771 26.97 116.64 27.2846C116.51 27.5993 116.444 27.9365 116.445 28.277V28.277Z" fill="#282739"/>
</g>
</g>
</g>
<g id="&#60;Group&#62;_4">
<g id="Group_5">
<path id="Vector_10" d="M41.786 12.6601H42.6836C42.8381 12.6793 42.9949 12.6663 43.1442 12.622C43.2934 12.5776 43.4319 12.5028 43.5508 12.4022C43.6697 12.3017 43.7665 12.1776 43.835 12.0378C43.9036 11.898 43.9425 11.7456 43.9492 11.59C43.9492 10.9709 43.4834 10.571 42.6935 10.571C42.5352 10.5489 42.374 10.5587 42.2196 10.5999C42.0652 10.6411 41.9205 10.7128 41.7943 10.8108C41.668 10.9088 41.5626 11.0311 41.4844 11.1705C41.4062 11.3099 41.3567 11.4636 41.3389 11.6224H40.3534C40.3703 11.3341 40.4465 11.0523 40.577 10.7947C40.7076 10.537 40.8898 10.309 41.1123 10.1249C41.3348 9.9407 41.5929 9.80431 41.8704 9.72419C42.1479 9.64407 42.4389 9.62193 42.7253 9.65915C44.047 9.65915 44.9776 10.3991 44.9776 11.4642C44.9807 11.821 44.8613 12.1681 44.6393 12.4475C44.4174 12.727 44.1063 12.9218 43.7581 12.9995V13.0786C44.1709 13.097 44.5598 13.278 44.8395 13.5822C45.1193 13.8863 45.2673 14.2889 45.2511 14.7019C45.2206 14.9988 45.131 15.2865 44.9878 15.5484C44.8446 15.8102 44.6506 16.0408 44.4171 16.2267C44.1836 16.4126 43.9153 16.55 43.628 16.6308C43.3407 16.7117 43.0402 16.7343 42.744 16.6975C42.4472 16.738 42.1453 16.7183 41.8563 16.6396C41.5673 16.5609 41.2971 16.4248 41.0618 16.2394C40.8265 16.0541 40.631 15.8232 40.4868 15.5607C40.3426 15.2981 40.2528 15.0092 40.2227 14.7112H41.2235C41.2839 15.3534 41.8739 15.7676 42.744 15.7676C43.6141 15.7676 44.1821 15.3023 44.1821 14.6464C44.1821 13.9812 43.6471 13.5714 42.7122 13.5714H41.786V12.6601Z" fill="#282739"/>
<path id="Vector_11" d="M46.3867 15.1022C46.3867 14.1903 47.0668 13.6646 48.2709 13.5899L49.6431 13.5108V13.0735C49.6431 12.5385 49.2904 12.2364 48.606 12.2364C48.0479 12.2364 47.6622 12.4413 47.5502 12.7994H46.5823C46.6844 11.9293 47.504 11.3712 48.6532 11.3712C49.9232 11.3712 50.6395 12.0035 50.6395 13.0735V16.5348H49.676V15.8229H49.5969C49.4364 16.0782 49.2109 16.2864 48.9436 16.4262C48.6763 16.5659 48.3766 16.6322 48.0753 16.6183C47.8627 16.6404 47.6477 16.6177 47.4444 16.5516C47.241 16.4856 47.0537 16.3777 46.8947 16.2349C46.7356 16.092 46.6082 15.9174 46.5207 15.7223C46.4332 15.5272 46.3876 15.316 46.3867 15.1022ZM49.6431 14.6693V14.2458L48.406 14.3249C47.7083 14.3716 47.3919 14.6089 47.3919 15.0555C47.3919 15.5114 47.7874 15.7767 48.3313 15.7767C48.4906 15.7929 48.6516 15.7768 48.8046 15.7294C48.9576 15.6821 49.0996 15.6044 49.222 15.5011C49.3443 15.3978 49.4447 15.2709 49.517 15.128C49.5894 14.9851 49.6322 14.8291 49.6431 14.6693Z" fill="#282739"/>
<path id="Vector_12" d="M53.2927 12.3106V16.5348H52.293V11.469H55.6285V12.3105L53.2927 12.3106Z" fill="#282739"/>
<path id="Vector_13" d="M61.6878 14.0005C61.6878 15.61 60.8737 16.6191 59.5949 16.6191C59.2809 16.6405 58.9674 16.5718 58.6912 16.4211C58.415 16.2703 58.1877 16.0438 58.0359 15.7682H57.9568V18.2198H56.957V11.4698H57.9194V12.307H57.9941C58.1487 12.0217 58.379 11.7847 58.6597 11.6222C58.9405 11.4596 59.2607 11.3778 59.585 11.3858C60.8737 11.3858 61.6878 12.3904 61.6878 14.0005ZM60.6594 14.0005C60.6594 12.9304 60.153 12.2839 59.3059 12.2839C58.4644 12.2839 57.9381 12.9442 57.9381 14.0049C57.9381 15.0607 58.4644 15.7215 59.3015 15.7215C60.153 15.7215 60.6594 15.075 60.6594 14.0005Z" fill="#282739"/>
<path id="Vector_14" d="M63.0203 18.3492V17.4884C63.1285 17.5022 63.2375 17.5084 63.3466 17.5071C63.5596 17.5229 63.7709 17.4594 63.94 17.3289C64.1091 17.1985 64.224 17.0101 64.2628 16.8001L64.3375 16.5535L62.5039 11.469H63.5926L64.8627 15.4927H64.9418L66.2074 11.469H67.2676L65.3791 16.7441C64.9462 17.9767 64.4672 18.3723 63.4345 18.3723C63.351 18.3723 63.1137 18.3629 63.0203 18.3492Z" fill="#282739"/>
<path id="Vector_15" d="M68.0469 15.0971H69.0422C69.14 15.5437 69.5586 15.7766 70.1442 15.7766C70.81 15.7766 71.2186 15.4833 71.2186 15.0273C71.2186 14.539 70.8517 14.3061 70.1442 14.3061H69.3861V13.5294H70.131C70.7352 13.5294 71.0429 13.297 71.0429 12.8735C71.0429 12.5016 70.7451 12.2176 70.131 12.2176C69.5718 12.2176 69.1631 12.4549 69.0982 12.8548H68.1348C68.2068 12.3953 68.4563 11.9824 68.8296 11.705C69.2029 11.4275 69.6702 11.3076 70.131 11.3711C71.3351 11.3711 72.0239 11.9155 72.0239 12.7713C72.0296 13.0097 71.9532 13.2427 71.8076 13.4315C71.662 13.6202 71.4561 13.7533 71.2241 13.8084V13.8875C71.5003 13.9232 71.7537 14.0589 71.9364 14.269C72.119 14.4791 72.2182 14.749 72.2151 15.0274C72.2151 15.9904 71.3955 16.6275 70.1442 16.6275C69.0378 16.6275 68.1392 16.1205 68.0469 15.0971Z" fill="#282739"/>
<path id="Vector_16" d="M73.6562 16.5348V11.469H74.6472V14.9533H74.7263L77.0609 11.469H78.0519V16.5348H77.0609V13.0318H76.9862L74.6472 16.5348L73.6562 16.5348Z" fill="#282739"/>
<path id="Vector_17" d="M83.5077 12.3112H81.9125V16.5355H80.9117V12.3112H79.3164V11.4697H83.5077V12.3112Z" fill="#282739"/>
<path id="Vector_18" d="M88.8938 15.1671C88.7576 15.63 88.463 16.0304 88.0616 16.2983C87.6602 16.5662 87.1774 16.6845 86.6976 16.6327C86.3639 16.6415 86.0322 16.5775 85.7257 16.4453C85.4191 16.3131 85.145 16.1158 84.9223 15.867C84.6997 15.6182 84.5338 15.3239 84.4363 15.0046C84.3388 14.6853 84.3119 14.3486 84.3575 14.0179C84.3131 13.6862 84.3405 13.3487 84.4378 13.0285C84.535 12.7082 84.7 12.4126 84.9215 12.1617C85.143 11.9107 85.4158 11.7103 85.7215 11.5739C86.0271 11.4375 86.3585 11.3684 86.6932 11.3713C88.1028 11.3713 88.9542 12.3343 88.9542 13.9251V14.2739H85.3771V14.3299C85.3612 14.5159 85.3845 14.7031 85.4453 14.8795C85.5061 15.0559 85.6032 15.2177 85.7302 15.3544C85.8573 15.491 86.0115 15.5996 86.1831 15.6731C86.3546 15.7466 86.5396 15.7834 86.7262 15.7812C86.9652 15.8098 87.2073 15.7666 87.4217 15.6573C87.6361 15.5479 87.8131 15.3773 87.9303 15.1671L88.8938 15.1671ZM85.377 13.5345H87.9347C87.9473 13.3646 87.9243 13.1939 87.867 13.0334C87.8098 12.8729 87.7196 12.7261 87.6023 12.6026C87.4849 12.479 87.3431 12.3813 87.1858 12.3158C87.0285 12.2503 86.8592 12.2184 86.6888 12.2222C86.5159 12.2199 86.3442 12.2522 86.1839 12.3173C86.0237 12.3824 85.8781 12.479 85.7558 12.6014C85.6336 12.7237 85.537 12.8693 85.472 13.0296C85.4069 13.1899 85.3747 13.3616 85.3771 13.5345H85.377Z" fill="#282739"/>
<path id="Vector_19" d="M93.1328 11.469H95.4169C96.4078 11.469 96.989 11.9711 96.989 12.7571C96.9905 13.0065 96.9064 13.2489 96.7506 13.4437C96.5948 13.6385 96.3768 13.7739 96.1332 13.8272V13.9063C96.429 13.925 96.7064 14.0566 96.908 14.2739C97.1096 14.4913 97.22 14.7777 97.2164 15.0741C97.2164 15.958 96.5517 16.5348 95.4399 16.5348H93.1328V11.469ZM94.1238 12.2364V13.5481H95.1148C95.719 13.5481 96.0079 13.3158 96.0079 12.8873C96.0079 12.4924 95.7564 12.2364 95.2257 12.2364L94.1238 12.2364ZM94.1238 14.2831V15.7674H95.3093C95.9003 15.7674 96.2167 15.5065 96.2167 15.0275C96.2167 14.5205 95.8586 14.2832 95.184 14.2832L94.1238 14.2831Z" fill="#282739"/>
</g>
</g>
</g>
</svg>
