<svg width="22" height="22" viewBox="0 0 22 22" fill="none" xmlns="http://www.w3.org/2000/svg">
<g id="delivery-truck 1" clip-path="url(#clip0_11701_22162)">
<g id="Group">
<path id="Vector" d="M20.7292 9.8822H20.2305L19.4223 6.50151C19.3089 6.0114 18.879 5.66924 18.3751 5.66924H15.0894V5.02441C15.0894 4.19473 14.4145 3.51978 13.5848 3.51978H1.50464C0.674953 3.51973 0 4.19469 0 5.02437V15.041C0 15.8702 0.674953 16.5456 1.50464 16.5456H2.73629C3.02345 17.6569 4.03459 18.4802 5.23398 18.4802C6.43341 18.4802 7.44451 17.6569 7.73167 16.5456H14.6122C14.8993 17.6569 15.9105 18.4802 17.1099 18.4802C18.3092 18.4802 19.3204 17.6569 19.6075 16.5456H20.4953C21.325 16.5456 21.9999 15.8707 21.9999 15.041V11.153C22 10.4523 21.43 9.8822 20.7292 9.8822ZM18.2053 6.95891L18.9043 9.8822H15.0894V6.95891H18.2053ZM1.28971 15.041V13.1546H2.66002C3.01615 13.1546 3.30486 12.8659 3.30486 12.5098C3.30486 12.1537 3.01615 11.865 2.66002 11.865H1.28971V5.02437C1.28971 4.90573 1.386 4.80944 1.50464 4.80944H13.5847C13.7034 4.80944 13.7997 4.90573 13.7997 5.02437V15.2559H7.73171C7.44455 14.1446 6.43341 13.3214 5.23402 13.3214C4.03459 13.3214 3.0235 14.1446 2.73634 15.2559H1.50464C1.386 15.2559 1.28971 15.1592 1.28971 15.041ZM5.23398 17.1905C4.5228 17.1905 3.94427 16.6112 3.94427 15.9007C3.94427 14.5858 5.69254 14.1201 6.35039 15.2559C6.58023 15.6503 6.58281 16.1452 6.35039 16.5456C6.12691 16.9308 5.71033 17.1905 5.23398 17.1905ZM17.1099 17.1905C16.1174 17.1905 15.4982 16.109 15.9934 15.2559C16.6538 14.1158 18.3996 14.589 18.3996 15.9007C18.3996 16.6083 17.8235 17.1905 17.1099 17.1905ZM20.7103 15.041C20.7103 15.1596 20.614 15.2559 20.4954 15.2559H19.6076C19.3205 14.1446 18.3093 13.3214 17.1099 13.3214C16.2927 13.3214 15.5627 13.7035 15.0894 14.299V11.1719H20.7103V15.041H20.7103Z" fill="#282739"/>
<path id="Vector_2" d="M6.20884 11.8087C6.44912 12.0834 6.86935 12.1042 7.1355 11.8544L10.0158 9.15118C10.2755 8.90746 10.2885 8.49939 10.0447 8.23969C9.80107 7.98003 9.393 7.96705 9.13325 8.21077L6.73989 10.4569L5.99739 9.60803C5.76291 9.33994 5.35552 9.31274 5.08748 9.54718C4.81944 9.78166 4.7922 10.189 5.02664 10.4571L6.20884 11.8087Z" fill="#282739"/>
</g>
</g>
<defs>
<clipPath id="clip0_11701_22162">
<rect width="22" height="22" fill="white"/>
</clipPath>
</defs>
</svg>
