<svg width="152" height="45" viewBox="0 0 152 45" fill="none" xmlns="http://www.w3.org/2000/svg">
<g id="g13546">
<g id="g13548">
<path id="path13552" d="M145.745 44.8882H5.81967C2.74131 44.8882 0.222656 42.3695 0.222656 39.2912V5.70908C0.222656 2.63073 2.74131 0.112068 5.81967 0.112068H145.745C148.823 0.112068 151.342 2.63073 151.342 5.70908V39.2912C151.342 42.3695 148.823 44.8882 145.745 44.8882Z" fill="white"/>
<path id="path13556" d="M119.926 33.6936H122.015V19.6997H119.926V33.6936ZM138.74 24.7406L136.346 30.8076H136.274L133.789 24.7406H131.539L135.265 33.2204L133.141 37.9372H135.32L141.063 24.7406H138.74ZM126.895 32.1041C126.209 32.1041 125.256 31.7621 125.256 30.9156C125.256 29.8355 126.445 29.4215 127.47 29.4215C128.389 29.4215 128.82 29.6195 129.378 29.8898C129.216 31.1859 128.1 32.1041 126.895 32.1041ZM127.146 24.4344C125.634 24.4344 124.068 25.1008 123.42 26.5771L125.274 27.351C125.67 26.5771 126.408 26.3248 127.182 26.3248C128.262 26.3248 129.361 26.9732 129.378 28.1254V28.2693C129 28.0532 128.191 27.7293 127.2 27.7293C125.202 27.7293 123.167 28.8272 123.167 30.8797C123.167 32.7521 124.806 33.9585 126.642 33.9585C128.046 33.9585 128.82 33.3284 129.307 32.5904H129.378V33.6704H131.395V28.3051C131.395 25.821 129.541 24.4344 127.146 24.4344ZM114.237 26.4441H111.267V21.6473H114.237C115.799 21.6473 116.686 22.9402 116.686 24.0457C116.686 25.1301 115.799 26.4441 114.237 26.4441ZM114.184 19.6997H109.179V33.6936H111.267V28.3917H114.184C116.499 28.3917 118.774 26.7157 118.774 24.0457C118.774 21.3758 116.499 19.6997 114.184 19.6997ZM86.8915 32.1067C85.4485 32.1067 84.2403 30.8985 84.2403 29.2391C84.2403 27.5623 85.4485 26.3357 86.8915 26.3357C88.3162 26.3357 89.4343 27.5623 89.4343 29.2391C89.4343 30.8985 88.3162 32.1067 86.8915 32.1067ZM89.29 25.5242H89.2178C88.7491 24.9652 87.8469 24.4603 86.711 24.4603C84.3304 24.4603 82.1485 26.5521 82.1485 29.2391C82.1485 31.9082 84.3304 33.9821 86.711 33.9821C87.8469 33.9821 88.7491 33.4771 89.2178 32.9004H89.29V33.5855C89.29 35.4073 88.3162 36.381 86.7472 36.381C85.4669 36.381 84.6733 35.461 84.3484 34.6857L82.5272 35.4431C83.0502 36.7054 84.4389 38.2565 86.7472 38.2565C89.1999 38.2565 91.2738 36.8134 91.2738 33.297V24.7489H89.29V25.5242ZM92.7163 33.6936H94.8083V19.6992H92.7163V33.6936ZM97.8922 29.0769C97.8381 27.2373 99.3169 26.2998 100.381 26.2998C101.211 26.2998 101.914 26.7143 102.148 27.3099L97.8922 29.0769ZM104.384 27.4901C103.988 26.4257 102.779 24.4603 100.309 24.4603C97.856 24.4603 95.8183 26.3899 95.8183 29.2212C95.8183 31.8903 97.8381 33.9821 100.543 33.9821C102.725 33.9821 103.988 32.6476 104.511 31.8723L102.888 30.7901C102.347 31.5837 101.607 32.1067 100.543 32.1067C99.4791 32.1067 98.7218 31.6196 98.2347 30.6641L104.6 28.0309L104.384 27.4901ZM53.6663 25.9211V27.9408H58.4993C58.355 29.0769 57.9763 29.9064 57.3992 30.4836C56.6961 31.1871 55.5959 31.9624 53.6663 31.9624C50.6906 31.9624 48.3644 29.564 48.3644 26.5884C48.3644 23.6128 50.6906 21.214 53.6663 21.214C55.2714 21.214 56.4433 21.8454 57.3091 22.6569L58.7337 21.2324C57.5256 20.0779 55.9203 19.1943 53.6663 19.1943C49.5904 19.1943 46.1641 22.5126 46.1641 26.5884C46.1641 30.6641 49.5904 33.9821 53.6663 33.9821C55.8666 33.9821 57.5256 33.2611 58.8238 31.9082C60.1584 30.5737 60.5734 28.6982 60.5734 27.1836C60.5734 26.7143 60.5374 26.2819 60.4649 25.9211H53.6663ZM66.0681 32.1067C64.625 32.1067 63.3806 30.9164 63.3806 29.2212C63.3806 27.508 64.625 26.3357 66.0681 26.3357C67.5105 26.3357 68.755 27.508 68.755 29.2212C68.755 30.9164 67.5105 32.1067 66.0681 32.1067ZM66.0681 24.4603C63.4348 24.4603 61.2887 26.462 61.2887 29.2212C61.2887 31.9624 63.4348 33.9821 66.0681 33.9821C68.7008 33.9821 70.8469 31.9624 70.8469 29.2212C70.8469 26.462 68.7008 24.4603 66.0681 24.4603ZM76.4933 32.1067C75.0508 32.1067 73.8063 30.9164 73.8063 29.2212C73.8063 27.508 75.0508 26.3357 76.4933 26.3357C77.9359 26.3357 79.1803 27.508 79.1803 29.2212C79.1803 30.9164 77.9359 32.1067 76.4933 32.1067ZM76.4933 24.4603C73.8601 24.4603 71.7144 26.462 71.7144 29.2212C71.7144 31.9624 73.8601 33.9821 76.4933 33.9821C79.1261 33.9821 81.2722 31.9624 81.2722 29.2212C81.2722 26.462 79.1261 24.4603 76.4933 24.4603Z" fill="#282739"/>
<g id="g13558">
<g id="g13560">
<path id="path13580" d="M11.988 36.3684L11.9048 36.2888C11.579 35.9442 11.3867 35.409 11.3867 34.7159V34.879V10.1223C11.3867 10.1201 11.3867 10.1184 11.3867 10.1166C11.3867 10.1187 11.3867 10.1205 11.3867 10.1228V10.2863C11.3867 9.53587 11.6109 8.97058 11.9866 8.63162L25.8558 22.5005L11.988 36.3684ZM11.3867 10.1153C11.3867 10.0536 11.3884 9.99371 11.3915 9.93472C11.3884 9.99326 11.3867 10.0536 11.3867 10.1153ZM11.3915 9.93203C11.3915 9.93125 11.3915 9.93035 11.3919 9.92946C11.3915 9.93035 11.3915 9.93125 11.3915 9.93203ZM11.3919 9.9242C11.3919 9.92375 11.3919 9.9233 11.3919 9.92285C11.3919 9.9233 11.3919 9.92375 11.3919 9.9242Z" fill="url(#paint0_linear_12537_1035)"/>
</g>
</g>
<g id="g13582">
<g id="g13584">
<path id="path13600" d="M30.4778 27.2889L30.5833 27.2291L36.0604 24.117C36.5826 23.8201 36.9306 23.4602 37.1042 23.0794C36.9311 23.4602 36.5829 23.8206 36.0604 24.1174L30.5833 27.2295L30.4778 27.2889ZM30.4792 27.1249L25.8555 22.5005L30.4787 17.8768L36.0604 21.0478C36.7692 21.4506 37.1672 21.9697 37.2336 22.5C37.2336 22.5005 37.2336 22.5014 37.2336 22.5022C37.1672 23.0313 36.7692 23.5508 36.0604 23.9535L30.4792 27.1249Z" fill="url(#paint1_linear_12537_1035)"/>
</g>
</g>
<g id="g13602">
<g id="g13604">
<path id="path13616" d="M12.9749 36.8965C12.5875 36.8965 12.2494 36.7706 11.9858 36.5327L11.9863 36.5322C12.2499 36.7701 12.5884 36.8965 12.9758 36.8965C13.0094 36.8965 13.0436 36.8956 13.0781 36.8939C13.0431 36.8956 13.0085 36.8965 12.9749 36.8965ZM12.9754 36.7325C12.588 36.7329 12.2499 36.6066 11.9863 36.3687V36.3683L25.8541 22.5004L30.4778 27.1249L14.2294 36.3569C13.7799 36.6118 13.354 36.7325 12.9754 36.7325ZM11.9824 36.5297C11.9578 36.5074 11.9338 36.4838 11.9102 36.4592L11.9824 36.5297Z" fill="url(#paint2_linear_12537_1035)"/>
</g>
</g>
<g id="g13618">
<g id="g13620">
<path id="path13638" d="M25.8575 22.5004L11.9883 8.63153C12.2519 8.3941 12.5895 8.26817 12.9765 8.26817C13.3561 8.26817 13.7823 8.38929 14.2328 8.64462L30.4807 17.8767L25.8575 22.5004ZM30.5853 17.7722L14.2328 8.48119C13.7823 8.22574 13.3561 8.10462 12.9765 8.10462C12.9747 8.10462 12.9735 8.10462 12.9717 8.10462C12.9739 8.10462 12.9756 8.10462 12.9783 8.10462C13.357 8.10462 13.7828 8.22529 14.2328 8.48074L30.5853 17.7722Z" fill="url(#paint3_linear_12537_1035)"/>
</g>
</g>
<path id="path13640" d="M13.0813 36.894C13.4332 36.8739 13.8229 36.7528 14.2326 36.5206L30.4796 27.289L14.2326 36.5206C13.8232 36.7532 13.4332 36.8739 13.0813 36.894ZM11.989 36.5328L11.9855 36.5298C11.9867 36.5307 11.9881 36.5319 11.989 36.5328ZM11.9133 36.4594L11.9062 36.4524V36.452C11.9089 36.4546 11.9111 36.4571 11.9133 36.4594Z" fill="white"/>
<g id="g13642">
<g id="g13644">
<path id="path13660" d="M30.4766 27.2889L30.582 27.2291L30.4766 27.2889Z" fill="url(#paint4_linear_12537_1035)"/>
</g>
</g>
<g id="g13662">
<g id="g13664">
<path id="path13676" d="M12.979 36.8965C12.5915 36.8965 12.253 36.7701 11.9894 36.5322L11.989 36.5327C11.9881 36.5318 11.9867 36.5306 11.9855 36.5297L11.9133 36.4592C11.9111 36.457 11.9089 36.4544 11.9062 36.4519L11.9894 36.3687C12.253 36.6066 12.5911 36.7329 12.9785 36.7325C13.3571 36.7325 13.783 36.6118 14.2326 36.3569L30.481 27.1249L30.5851 27.229L30.4796 27.2889L14.2326 36.5205C13.8229 36.7526 13.4332 36.8738 13.0813 36.8939C13.0467 36.8956 13.0126 36.8965 12.979 36.8965Z" fill="url(#paint5_linear_12537_1035)"/>
</g>
</g>
<path id="path13678" d="M11.9048 36.4525C11.579 36.1079 11.3867 35.5727 11.3867 34.8796V34.8792C11.3867 35.5727 11.579 36.1074 11.9048 36.4521V36.4525Z" fill="white"/>
<g id="g13680">
<g id="g13682">
<path id="path13702" d="M11.9048 36.4521C11.579 36.1075 11.3867 35.5727 11.3867 34.8793V34.7162C11.3867 35.4092 11.579 35.9444 11.9048 36.2891L11.988 36.3686L11.9048 36.4521Z" fill="url(#paint6_linear_12537_1035)"/>
</g>
</g>
<g id="g13704">
<g id="g13706">
<path id="path13718" d="M11.9062 36.4521L11.9894 36.3686V36.369L11.9062 36.4521Z" fill="url(#paint7_linear_12537_1035)"/>
</g>
</g>
<path id="path13720" d="M37.1055 23.0793C37.1916 22.8904 37.2349 22.6963 37.2349 22.5021C37.2349 22.5017 37.2349 22.5013 37.2349 22.5013C37.2349 22.6958 37.1916 22.8899 37.1055 23.0793Z" fill="white"/>
<g id="g13722">
<g id="g13724">
<path id="path13740" d="M30.5846 27.2291L30.4805 27.125L36.0617 23.9535C36.7705 23.5509 37.1685 23.0314 37.235 22.5022C37.235 22.6964 37.1916 22.8905 37.1056 23.0795C36.9319 23.4603 36.5839 23.8202 36.0617 24.1171L30.5846 27.2291Z" fill="url(#paint8_linear_12537_1035)"/>
</g>
</g>
<path id="path13742" d="M37.2328 22.5004V22.4999C37.2324 21.9144 36.8411 21.3289 36.0596 20.8846L30.5825 17.7726H30.582L30.5825 17.7722L36.0596 20.8842C36.842 21.3285 37.2337 21.9148 37.2328 22.5004Z" fill="#282739"/>
<g id="g13744">
<g id="g13746">
<path id="path13762" d="M37.2354 22.5C37.1689 21.9696 36.771 21.4506 36.0621 21.0478L30.4805 17.8768L30.5846 17.7727H30.585L36.0621 20.8847C36.8436 21.329 37.2349 21.9144 37.2354 22.5Z" fill="url(#paint9_linear_12537_1035)"/>
</g>
</g>
<path id="path13764" d="M11.3867 10.1167C11.3867 10.1163 11.3867 10.1158 11.3867 10.1154C11.3867 10.1158 11.3867 10.1163 11.3867 10.1167ZM11.3915 9.9348C11.3915 9.9339 11.3915 9.93301 11.3915 9.93211C11.3915 9.93301 11.3915 9.9339 11.3915 9.9348ZM11.3919 9.92954C11.3919 9.92774 11.3919 9.92607 11.3919 9.92427C11.3919 9.92607 11.3919 9.92774 11.3919 9.92954ZM11.3919 9.92293C11.4567 8.77297 12.082 8.10872 12.9665 8.1048C12.583 8.10704 12.249 8.23297 11.9875 8.4686V8.46816L11.9844 8.47129C11.9568 8.49614 11.9306 8.52245 11.9048 8.54954C11.6109 8.86039 11.4256 9.32607 11.3919 9.92293Z" fill="#282739"/>
<g id="g13766">
<g id="g13768">
<path id="path13788" d="M11.3867 10.2863V10.1227C11.3867 10.1205 11.3867 10.1187 11.3867 10.1166C11.3867 10.1161 11.3867 10.1157 11.3867 10.1152C11.3867 10.0535 11.3884 9.9932 11.3915 9.93465C11.3915 9.93376 11.3915 9.93286 11.3915 9.93197C11.3915 9.93118 11.3915 9.93029 11.3919 9.92939C11.3919 9.9276 11.3919 9.92592 11.3919 9.92413C11.3919 9.92368 11.3919 9.92323 11.3919 9.92279C11.4256 9.32592 11.6109 8.86025 11.9048 8.54939L11.9866 8.63155C11.6109 8.97051 11.3867 9.53581 11.3867 10.2863ZM11.9844 8.47114L11.9875 8.46801C11.9866 8.46935 11.9853 8.47025 11.9844 8.47114Z" fill="url(#paint10_linear_12537_1035)"/>
</g>
</g>
<g id="g13792">
<g id="g13794">
<path id="path13812" d="M30.4805 17.8768L14.2326 8.64478C13.7821 8.38944 13.3559 8.26832 12.9763 8.26832C12.5893 8.26832 12.2517 8.39426 11.9881 8.63168L11.9062 8.54952C11.9321 8.52243 11.9583 8.49612 11.9858 8.47127C11.9867 8.47037 11.9881 8.46948 11.989 8.46858C12.2505 8.23295 12.5845 8.10702 12.968 8.10478C12.9689 8.10478 12.9701 8.10478 12.9715 8.10478C12.9733 8.10478 12.9745 8.10478 12.9763 8.10478C13.3559 8.10478 13.7821 8.2259 14.2326 8.48134L30.5851 17.7724L30.5846 17.7727L30.4805 17.8768Z" fill="url(#paint11_linear_12537_1035)"/>
</g>
</g>
<path id="path13814" d="M48.9121 11.2684C48.9252 12.3309 48.7123 13.188 48.2749 13.8387H51.6703V8.77248H48.9121V11.2684ZM47.3642 16.0892H46.5391V13.8387H47.1958C47.7773 13.3375 48.0616 12.4814 48.0498 11.2684V7.94737H52.5339V13.8387H53.2839V16.0892H52.4584V14.6638H47.3642V16.0892Z" fill="#282739"/>
<path id="path13816" d="M48.9147 11.2683L48.8027 11.2696L48.8036 11.3601C48.8032 12.3654 48.5933 13.1683 48.1844 13.776L48.0673 13.9505H51.7848V8.66041H48.8027V11.2692V11.2696L48.9147 11.2683H49.0266V8.88429H51.5609V13.7266H48.2775V13.8385L48.3703 13.9007C48.8105 13.2456 49.0275 12.3955 49.0275 11.3601L49.0266 11.2669L48.9147 11.2683H49.0266H48.9147ZM47.3667 16.0891V15.9772H46.6536V13.9505H47.1984H47.2399L47.2714 13.9234C47.8765 13.4013 48.1648 12.5315 48.1648 11.3417L48.1643 11.2674V11.2683V8.05918H52.4245V13.9505H53.1745V15.9772H52.5729V14.6637V14.5517H47.2548V16.0891H47.3667V15.9772V16.0891H47.4787V14.7756H52.349V16.0891V16.201H53.2865H53.3984V13.7266H52.6484V7.8353H47.9404V11.2687V11.2692L47.9409 11.3417C47.9404 12.5001 47.6597 13.2946 47.1253 13.7533L47.1984 13.8385V13.7266H46.5416H46.4297V16.201H47.3667H47.4787V16.0891H47.3667Z" fill="#282739"/>
<path id="path13818" d="M55.7282 13.2335C56.2257 13.7367 56.8336 13.9882 57.5529 13.9882C58.2721 13.9882 58.8809 13.7367 59.3771 13.2335C59.8748 12.7302 60.1239 12.0869 60.1239 11.3055C60.1239 10.5242 59.8748 9.88085 59.3771 9.37756C58.8809 8.87428 58.2721 8.62286 57.5529 8.62286C56.8336 8.62286 56.2257 8.87428 55.7282 9.37756C55.2318 9.88085 54.9826 10.5242 54.9826 11.3055C54.9826 12.0869 55.2318 12.7302 55.7282 13.2335ZM60.0156 13.7957C59.3553 14.4748 58.5345 14.8137 57.5529 14.8137C56.5712 14.8137 55.75 14.4748 55.091 13.7957C54.4308 13.1175 54.1016 12.2872 54.1016 11.3055C54.1016 10.3238 54.4308 9.49342 55.091 8.81529C55.75 8.13614 56.5712 7.79685 57.5529 7.79685C58.5288 7.79685 59.3479 8.13794 60.0111 8.81965C60.6736 9.50137 61.005 10.33 61.005 11.3055C61.005 12.2872 60.6749 13.1175 60.0156 13.7957Z" fill="#282739"/>
<path id="path13820" d="M55.7268 13.2336L55.6472 13.3123C56.1627 13.8357 56.8059 14.1016 57.5516 14.1002C58.2966 14.1016 58.9412 13.8357 59.4553 13.3123C59.9744 12.7884 60.2354 12.1106 60.2346 11.3056C60.2354 10.5007 59.9744 9.82287 59.4553 9.29899C58.9412 8.77556 58.2966 8.5097 57.5516 8.51104C56.8059 8.5097 56.1627 8.77556 55.6472 9.29899C55.1295 9.82287 54.8685 10.5007 54.8694 11.3056C54.8685 12.1106 55.1295 12.7884 55.6472 13.3123L55.7268 13.2336L55.8069 13.1549C55.3319 12.6716 55.0945 12.0638 55.0932 11.3056C55.0945 10.5475 55.3319 9.93962 55.8069 9.45638H55.8064C56.2856 8.97324 56.858 8.73627 57.5516 8.73492C58.2446 8.73627 58.8183 8.97324 59.2962 9.45638L59.2979 9.45817L59.2962 9.45638C59.7723 9.93962 60.0094 10.5475 60.0107 11.3056C60.0094 12.0638 59.7723 12.6716 59.2962 13.1549C58.8183 13.638 58.2446 13.875 57.5516 13.8763C56.858 13.875 56.2856 13.638 55.8064 13.1549L55.7268 13.2336ZM60.0143 13.7959L59.9342 13.7181C59.2927 14.3757 58.5074 14.7006 57.5516 14.7019C56.5953 14.7006 55.8103 14.3757 55.1697 13.7181C54.5295 13.0582 54.2134 12.2624 54.2122 11.3056C54.2134 10.3489 54.5295 9.55309 55.1697 8.89321C55.8103 8.23556 56.5953 7.91026 57.5516 7.90892C58.5017 7.91026 59.2849 8.2369 59.9299 8.89802C60.5726 9.56093 60.8905 10.3555 60.8918 11.3056C60.8905 12.2624 60.5735 13.0582 59.9342 13.7181L60.0143 13.7959L60.0946 13.8737C60.7733 13.1767 61.1165 12.3122 61.1156 11.3056C61.1165 10.3048 60.7724 9.44205 60.0903 8.74197C59.4081 8.03921 58.5538 7.6838 57.5516 7.68503C56.5441 7.6838 55.687 8.03753 55.0093 8.73761V8.73716C54.3293 9.43455 53.9874 10.2991 53.9883 11.3056C53.9874 12.3122 54.3293 13.1767 55.0093 13.8741V13.8737C55.687 14.5737 56.5441 14.9267 57.5516 14.9258C58.5586 14.9267 59.4156 14.5737 60.0946 13.8737L60.0143 13.7959Z" fill="#282739"/>
<path id="path13822" d="M65.3488 14.8137C64.3606 14.8137 63.532 14.4792 62.8629 13.8097C62.1926 13.1408 61.8594 12.3059 61.8594 11.3055C61.8594 10.305 62.1926 9.47025 62.8629 8.80129C63.532 8.13178 64.3606 7.79685 65.3488 7.79685C66.3611 7.79685 67.184 8.1629 67.8158 8.89443L67.2146 9.47641C66.759 8.90708 66.1358 8.62286 65.3488 8.62286C64.6164 8.62286 63.9984 8.86991 63.4956 9.36402C62.9919 9.85812 62.7405 10.5054 62.7405 11.3055C62.7405 12.1057 62.9919 12.7533 63.4956 13.247C63.9984 13.7411 64.6164 13.9882 65.3488 13.9882C66.1555 13.9882 66.843 13.6632 67.4126 13.013L68.0126 13.6129C67.7057 13.982 67.3217 14.2745 66.8582 14.4897C66.396 14.7057 65.8919 14.8137 65.3488 14.8137Z" fill="#282739"/>
<path id="path13824" d="M65.3474 14.8138V14.7019C64.3842 14.7006 63.5905 14.3792 62.9407 13.7307C62.2914 13.0813 61.9709 12.2812 61.97 11.3056C61.9709 10.3301 62.2914 9.52992 62.9407 8.88056C63.5905 8.23164 64.3842 7.91026 65.3474 7.90892C66.3331 7.91071 67.1167 8.25963 67.7296 8.96754L67.8145 8.89455L67.7367 8.81407L67.1355 9.39649L67.2133 9.47653L67.3007 9.40657C66.8258 8.81104 66.1608 8.50936 65.3474 8.51104C64.5896 8.51015 63.9377 8.77041 63.416 9.2841C62.8891 9.7997 62.6258 10.4826 62.6272 11.3056C62.6258 12.1286 62.8891 12.8125 63.416 13.3272C63.9377 13.8409 64.5896 14.1011 65.3474 14.1002C66.1848 14.1016 66.9102 13.7578 67.4952 13.087L67.4113 13.0132L67.3321 13.0923L67.9321 13.6922L68.0113 13.6131L67.9251 13.5419C67.6287 13.8977 67.2596 14.1794 66.8096 14.3884C66.3623 14.5973 65.8761 14.7015 65.3474 14.7019V14.8138V14.9258C65.9054 14.9258 66.4267 14.8147 66.9041 14.5913C67.3816 14.37 67.7796 14.067 68.0974 13.6848L68.1625 13.6066L67.4905 12.934L67.4057 12.8492L67.327 12.9393C66.7733 13.5694 66.1236 13.875 65.3474 13.8763C64.64 13.875 64.0571 13.6415 63.573 13.1671H63.5726C63.0916 12.6948 62.852 12.0831 62.8511 11.3056C62.852 10.5282 63.0916 9.91735 63.5726 9.44418H63.573C64.0571 8.96977 64.64 8.73627 65.3474 8.73492C66.1079 8.73672 66.6889 9.00347 67.1258 9.54649L67.2027 9.64276L67.8923 8.97504L67.9684 8.90149L67.8993 8.82156C67.2491 8.06597 66.3864 7.68381 65.3474 7.68504C64.3338 7.68414 63.4702 8.03272 62.7824 8.72227C62.0911 9.41048 61.7448 10.2807 61.7461 11.3056C61.7448 12.3306 62.0911 13.2008 62.7824 13.8894C63.4702 14.5785 64.3338 14.9267 65.3474 14.9258V14.8138Z" fill="#282739"/>
<path id="path13826" d="M71.505 14.6636H70.6415V8.77227H68.7656V7.94715H73.3809V8.77227H71.505V14.6636Z" fill="#282739"/>
<path id="path13828" d="M71.5037 14.6638V14.5519H70.7521V8.66057H68.8762V8.05934H73.2676V8.66057H71.3917V14.6638H71.5037V14.5519V14.6638H71.6156V8.88445H73.4915V7.9474V7.83546H68.6523V8.77251V8.88445H70.5282V14.7758H71.5037H71.6156V14.6638H71.5037Z" fill="#282739"/>
<path id="path13830" d="M75.2558 12.0364H77.4876L76.3901 9.00712H76.3529L75.2558 12.0364ZM73.3516 14.6636L75.8847 7.94715H76.8593L79.392 14.6636H78.4357L77.788 12.8432H74.9651L74.3083 14.6636H73.3516Z" fill="#282739"/>
<path id="path13832" d="M75.2536 12.0367V12.1486H77.6451L76.4661 8.89542H76.3507H76.272L75.0941 12.1486H75.2536V12.0367L75.359 12.0752L76.4562 9.04542L76.3507 9.00736V9.1193H76.3879V9.00736L76.2825 9.04542L77.3258 11.9248H75.2536V12.0367L75.359 12.0752L75.2536 12.0367ZM73.3494 14.6638L73.4543 14.7032L75.9598 8.05934H76.7792L79.2279 14.5519H78.5122L77.8649 12.7315H74.8842L74.2273 14.5519H73.3494V14.6638L73.4543 14.7032L73.3494 14.6638V14.7758H74.3061H74.3848L75.0416 12.9554H77.7071L78.3543 14.7758H79.3898H79.5515L76.9345 7.83546H75.8825H75.805L73.1875 14.7758H73.3494V14.6638Z" fill="#282739"/>
<path id="path13834" d="M80.3672 14.6636V7.94715H85.2265V14.6636H84.363V8.77227H81.2299V14.6636H80.3672Z" fill="#282739"/>
<path id="path13836" d="M80.3658 14.6638H80.4778V8.05934H85.1132V14.5519H84.4736V8.66057H81.1166V14.5519H80.3658V14.6638H80.4778H80.3658V14.7758H81.2286H81.3405V8.88445H84.2497V14.7758H85.2252H85.3371V7.83546H80.2539V14.7758H80.3658V14.6638Z" fill="#282739"/>
<path id="path13838" d="M86.7656 14.6636V7.94715H87.6285V10.8266H90.9867V7.94715H91.8498V14.6636H90.9867V11.6333H87.6285V14.6636H86.7656Z" fill="#282739"/>
<path id="path13840" d="M86.7643 14.6638H86.8762V8.05934H87.5152L87.5147 10.9388H91.0973V8.05934H91.7365V14.5519H91.0968L91.0973 11.5217H87.5147V14.5519H86.7643V14.6638H86.8762H86.7643V14.7758H87.6271H87.7391V11.7455H90.873V14.7758H91.8484H91.9603V7.83546H90.9853H90.873V10.7149H87.7386L87.7391 7.83546H86.7643H86.6523V14.7758H86.7643V14.6638Z" fill="#282739"/>
<path id="path13842" d="M94.5914 13.2335C95.0891 13.7367 95.6964 13.9882 96.4157 13.9882C97.1355 13.9882 97.7441 13.7367 98.2405 13.2335C98.7376 12.7302 98.9873 12.0869 98.9873 11.3055C98.9873 10.5242 98.7376 9.88085 98.2405 9.37756C97.7441 8.87428 97.1355 8.62286 96.4157 8.62286C95.6964 8.62286 95.0891 8.87428 94.5914 9.37756C94.0952 9.88085 93.8459 10.5242 93.8459 11.3055C93.8459 12.0869 94.0952 12.7302 94.5914 13.2335ZM98.8789 13.7957C98.2187 14.4748 97.3979 14.8137 96.4157 14.8137C95.4346 14.8137 94.6134 14.4748 93.9544 13.7957C93.2942 13.1175 92.9648 12.2872 92.9648 11.3055C92.9648 10.3238 93.2942 9.49342 93.9544 8.81529C94.6134 8.13614 95.4346 7.79685 96.4157 7.79685C97.3922 7.79685 98.2107 8.13794 98.8745 8.81965C99.537 9.50137 99.8684 10.33 99.8684 11.3055C99.8684 12.2872 99.5383 13.1175 98.8789 13.7957Z" fill="#282739"/>
<path id="path13844" d="M94.5901 13.2336L94.5105 13.3123C95.0261 13.8357 95.6693 14.1016 96.4144 14.1002C97.1599 14.1016 97.804 13.8357 98.3187 13.3123C98.8378 12.7884 99.0988 12.1106 99.0979 11.3056C99.0988 10.5007 98.8378 9.82287 98.3187 9.29899C97.804 8.77556 97.1599 8.5097 96.4144 8.51104C95.6693 8.5097 95.0261 8.77556 94.5105 9.29899C93.9928 9.82287 93.7318 10.5007 93.7326 11.3056C93.7318 12.1106 93.9928 12.7884 94.5105 13.3123L94.5901 13.2336L94.6697 13.1549C94.1948 12.6716 93.9574 12.0638 93.9565 11.3056C93.9574 10.5475 94.1948 9.93962 94.6697 9.45638C95.149 8.97324 95.7214 8.73627 96.4144 8.73492C97.108 8.73627 97.6817 8.97324 98.1595 9.45638L98.1626 9.45996L98.1595 9.45638C98.6353 9.93962 98.8727 10.5475 98.8741 11.3056C98.8727 12.0638 98.6353 12.6716 98.1595 13.1549C97.6817 13.638 97.108 13.875 96.4144 13.8763C95.7214 13.875 95.149 13.638 94.6697 13.1549L94.5901 13.2336ZM98.8775 13.7959L98.797 13.7181C98.1556 14.3757 97.3707 14.7006 96.4144 14.7019C95.4585 14.7006 94.6736 14.3757 94.0331 13.7181L94.03 13.7146L94.0331 13.7181C93.3925 13.0582 93.0763 12.2624 93.0754 11.3056C93.0763 10.3489 93.3925 9.55309 94.0331 8.89321C94.6736 8.23556 95.4585 7.91026 96.4144 7.90892C97.3647 7.91026 98.1478 8.2369 98.7931 8.89802C99.4359 9.56093 99.7538 10.3555 99.7551 11.3056C99.7538 12.2624 99.4368 13.0582 98.797 13.7181L98.8775 13.7959L98.958 13.8737C99.6366 13.1767 99.9799 12.3122 99.979 11.3056C99.9799 10.3048 99.6354 9.44205 98.9537 8.74197C98.2715 8.03921 97.4166 7.6838 96.4144 7.68503C95.4074 7.6838 94.5504 8.03753 93.8726 8.73761V8.73716C93.1926 9.43455 92.8507 10.2991 92.8516 11.3056C92.8507 12.3122 93.1926 13.1767 93.8726 13.8741V13.8737C94.5504 14.5737 95.4074 14.9267 96.4144 14.9258C97.4219 14.9267 98.2789 14.5737 98.958 13.8737L98.8775 13.7959Z" fill="#282739"/>
<path id="path13846" d="M103.398 14.6636V7.94715H104.26V10.8266H107.619V7.94715H108.483V14.6636H107.619V11.6333H104.26V14.6636H103.398Z" fill="#282739"/>
<path id="path13848" d="M103.397 14.6638H103.509V8.05934H104.147V10.9388H107.729V8.05934H108.369V14.5519H107.729V11.5217H104.147V14.5519H103.397V14.6638H103.509H103.397V14.7758H104.259H104.371V11.7455H107.505V14.7758H108.481H108.593V7.83546H107.617H107.505V10.7149H104.371V7.83546H103.397H103.285V14.7758H103.397V14.6638Z" fill="#282739"/>
<path id="path13850" d="M111.361 12.0364H113.593L112.496 9.00712H112.459L111.361 12.0364ZM109.457 14.6636L111.99 7.94715H112.965L115.498 14.6636H114.541L113.894 12.8432H111.07L110.414 14.6636H109.457Z" fill="#282739"/>
<path id="path13852" d="M111.359 12.0367V12.1486H113.752L112.573 8.89542H112.458H112.379L111.2 12.1486H111.359V12.0367L111.465 12.0752L112.563 9.04542L112.458 9.00736V9.1193H112.494V9.00736L112.389 9.04542L113.433 11.9248H111.359V12.0367L111.465 12.0752L111.359 12.0367ZM109.455 14.6638L109.561 14.7032L112.066 8.05934H112.886L115.334 14.5519H114.619L113.971 12.7315H110.99L110.333 14.5519H109.455V14.6638L109.561 14.7032L109.455 14.6638V14.7758H110.412H110.491L111.148 12.9554H113.813L114.46 14.7758H115.497H115.658L113.041 7.83546H111.988H111.911L109.293 14.7758H109.455V14.6638Z" fill="#282739"/>
</g>
</g>
<defs>
<linearGradient id="paint0_linear_12537_1035" x1="24.626" y1="9.86117" x2="5.83964" y2="28.6476" gradientUnits="userSpaceOnUse">
<stop stop-color="#00A0FF"/>
<stop offset="0.00657445" stop-color="#00A1FF"/>
<stop offset="0.2601" stop-color="#00BEFF"/>
<stop offset="0.5122" stop-color="#00D2FF"/>
<stop offset="0.7604" stop-color="#00DFFF"/>
<stop offset="1" stop-color="#00E3FF"/>
</linearGradient>
<linearGradient id="paint1_linear_12537_1035" x1="38.0973" y1="22.5011" x2="11.0111" y2="22.5011" gradientUnits="userSpaceOnUse">
<stop stop-color="#FFE000"/>
<stop offset="0.4087" stop-color="#FFBD00"/>
<stop offset="0.7754" stop-color="#FFA500"/>
<stop offset="1" stop-color="#FF9C00"/>
</linearGradient>
<linearGradient id="paint2_linear_12537_1035" x1="28.013" y1="25.0698" x2="2.53727" y2="50.5455" gradientUnits="userSpaceOnUse">
<stop stop-color="#FF3A44"/>
<stop offset="1" stop-color="#C31162"/>
</linearGradient>
<linearGradient id="paint3_linear_12537_1035" x1="8.39354" y1="0.308652" x2="19.7695" y2="11.6846" gradientUnits="userSpaceOnUse">
<stop stop-color="#32A071"/>
<stop offset="0.0685" stop-color="#2DA771"/>
<stop offset="0.4762" stop-color="#15CF74"/>
<stop offset="0.8009" stop-color="#06E775"/>
<stop offset="1" stop-color="#00F076"/>
</linearGradient>
<linearGradient id="paint4_linear_12537_1035" x1="38.0961" y1="22.5015" x2="11.0095" y2="22.5015" gradientUnits="userSpaceOnUse">
<stop stop-color="#CCB300"/>
<stop offset="0.4087" stop-color="#CC9700"/>
<stop offset="0.7754" stop-color="#CC8400"/>
<stop offset="1" stop-color="#CC7D00"/>
</linearGradient>
<linearGradient id="paint5_linear_12537_1035" x1="28.0161" y1="25.0698" x2="2.54042" y2="50.5455" gradientUnits="userSpaceOnUse">
<stop stop-color="#CC2E36"/>
<stop offset="1" stop-color="#9C0E4E"/>
</linearGradient>
<linearGradient id="paint6_linear_12537_1035" x1="24.626" y1="9.8614" x2="5.83966" y2="28.6478" gradientUnits="userSpaceOnUse">
<stop stop-color="#008DE0"/>
<stop offset="0.00657445" stop-color="#008DE0"/>
<stop offset="0.2601" stop-color="#00A7E0"/>
<stop offset="0.5122" stop-color="#00B8E0"/>
<stop offset="0.7604" stop-color="#00C4E0"/>
<stop offset="1" stop-color="#00C7E0"/>
</linearGradient>
<linearGradient id="paint7_linear_12537_1035" x1="28.0166" y1="25.0704" x2="2.54159" y2="50.5468" gradientUnits="userSpaceOnUse">
<stop stop-color="#E0333C"/>
<stop offset="1" stop-color="#AB0F56"/>
</linearGradient>
<linearGradient id="paint8_linear_12537_1035" x1="38.0986" y1="22.5012" x2="11.0123" y2="22.5012" gradientUnits="userSpaceOnUse">
<stop stop-color="#E0C500"/>
<stop offset="0.4087" stop-color="#E0A600"/>
<stop offset="0.7754" stop-color="#E09100"/>
<stop offset="1" stop-color="#E08900"/>
</linearGradient>
<linearGradient id="paint9_linear_12537_1035" x1="38.099" y1="22.5011" x2="11.0128" y2="22.5011" gradientUnits="userSpaceOnUse">
<stop stop-color="#FFE840"/>
<stop offset="0.4087" stop-color="#FFCE40"/>
<stop offset="0.7754" stop-color="#FFBC40"/>
<stop offset="1" stop-color="#FFB540"/>
</linearGradient>
<linearGradient id="paint10_linear_12537_1035" x1="24.626" y1="9.86111" x2="5.83964" y2="28.6475" gradientUnits="userSpaceOnUse">
<stop stop-color="#40B8FF"/>
<stop offset="0.00657445" stop-color="#40B9FF"/>
<stop offset="0.2601" stop-color="#40CEFF"/>
<stop offset="0.5122" stop-color="#40DDFF"/>
<stop offset="0.7604" stop-color="#40E7FF"/>
<stop offset="1" stop-color="#40EAFF"/>
</linearGradient>
<linearGradient id="paint11_linear_12537_1035" x1="8.39334" y1="0.308807" x2="19.7693" y2="11.6847" gradientUnits="userSpaceOnUse">
<stop stop-color="#65B895"/>
<stop offset="0.0685" stop-color="#62BD95"/>
<stop offset="0.4762" stop-color="#50DB97"/>
<stop offset="0.8009" stop-color="#44ED98"/>
<stop offset="1" stop-color="#40F498"/>
</linearGradient>
</defs>
</svg>
