<svg width="15" height="13" viewBox="0 0 15 13" fill="none" xmlns="http://www.w3.org/2000/svg">
<path d="M13.8643 6.39823L8.20416 0.741004L7.82477 0.361609C7.73832 0.275735 7.62142 0.227539 7.49957 0.227539C7.37772 0.227539 7.26082 0.275735 7.17438 0.361609L1.13483 6.39823C1.04625 6.48646 0.976245 6.59155 0.928946 6.70728C0.881647 6.82301 0.858012 6.94704 0.859436 7.07206C0.865295 7.58768 1.29449 7.9993 1.81012 7.9993H2.43268V12.7703H12.5665V7.9993H13.2022C13.4527 7.9993 13.6885 7.90116 13.8658 7.72391C13.9531 7.63692 14.0222 7.53347 14.0692 7.41957C14.1162 7.30567 14.1402 7.18357 14.1397 7.06034C14.1397 6.81132 14.0416 6.57548 13.8643 6.39823ZM8.31988 11.7156H6.67926V8.72733H8.31988V11.7156ZM11.5118 6.94462V11.7156H9.25739V8.37577C9.25739 8.05204 8.99518 7.78983 8.67145 7.78983H6.3277C6.00397 7.78983 5.74176 8.05204 5.74176 8.37577V11.7156H3.48737V6.94462H2.08112L7.50104 1.52909L7.83942 1.86747L12.9195 6.94462H11.5118Z" fill=""/>
</svg>
