<svg width="40" height="40" viewBox="0 0 40 40" fill="none" xmlns="http://www.w3.org/2000/svg">
<g id="Group 1665">
<circle id="Ellipse 28" cx="20" cy="20" r="20" transform="matrix(-1 0 0 1 40 0)" fill="white"/>
<path id="Arrow 3" d="M23.5303 20.4697C23.8232 20.7626 23.8232 21.2374 23.5303 21.5303L18.7574 26.3033C18.4645 26.5962 17.9896 26.5962 17.6967 26.3033C17.4038 26.0104 17.4038 25.5355 17.6967 25.2426L21.9393 21L17.6967 16.7574C17.4038 16.4645 17.4038 15.9896 17.6967 15.6967C17.9896 15.4038 18.4645 15.4038 18.7574 15.6967L23.5303 20.4697ZM22 20.25L23 20.25L23 21.75L22 21.75L22 20.25Z" fill="#6F73EE"/>
</g>
</svg>
